<svg fill="#000000" version="1.1" id="Capa_1" xmlns="http://www.w3.org/2000/svg" xmlns:xlink="http://www.w3.org/1999/xlink" viewBox="0 0 530.125 530.125" xml:space="preserve" stroke="#000000" stroke-width="0.00530125"><g id="SVGRepo_bgCarrier" stroke-width="0"></g><g id="SVGRepo_tracerCarrier" stroke-linecap="round" stroke-linejoin="round"></g><g id="SVGRepo_iconCarrier"> <g> <path d="M385.013,317.025c-11.5,19.7-24.9,36.399-42.5,45.399c-36.4,18.7-68.7,35.9-68.7,35.9l-62.7-35.9 c-17.9-9.199-40.4-26.199-53.3-46.399c-54.8,21.7-104.3,73.1-104.3,117.9v96.199h423.1c0,0,0-49.699,0-96.199 C476.513,389.726,438.913,339.125,385.013,317.025z M390.213,145.525c-1.3-17-5.5-33-12.101-47.6c0.7-8.8,3.101-19.2,6.301-29.6 c6-20.2,1.699-25.6-14.9-18.9c-16.6,6.7-39.7-15-47-33.1c-7.7-19.1-19.4-8.5-27-1.8c-11.8,10.4-37.8,4.6-45.7-8 c-7.9-12.6-20.1-4.9-30,5.8c-6.5,7.1-14.4,12.4-22.8,11.4c-16.4-1.8-33.9-26.2-33.1-2c1.4,40.7-12,75.4-12,75.4 c-6.7,14.8-11.1,31.2-12.4,48.4c-13.2,9-19.4,28.7-14.2,49.6c4.3,17.3,15.6,30.8,29,35.4c15.7,51.399,56,104.899,110.5,104.899 s94.8-53.5,110.5-105.1c13.4-4.6,24.7-18.1,29-35.4C409.812,174.226,403.612,154.625,390.213,145.525z M386.812,190.625 c-3.5,13.9-12.6,22.2-19.8,23.1l-6,0.8l-1.6,5.9c-4.5,16.6-11.9,33.2-21.4,47.9c-18,27.9-43.7,48.8-72.9,48.8 c-29.2,0-54.9-20.899-72.9-48.8c-9.5-14.7-16.9-31.3-21.4-47.9l-1.6-5.9l-6-0.8c-7.2-1-16.3-9.2-19.8-23.1 c-3.7-14.6,1-29.4,10-31.6c0.6-0.2,1.2-0.2,2-0.2c0.6,0,1,0,1.6,0.1l8.7,0.7l1.3-8.6c1.8-12.4,5.2-23.8,9.5-34.2 c2.8-7,7.4-18.2,13.5-24.1c15.5-14.8,43-24.4,74.2-24.4c37.7,0,70,14,82.7,33.9l0.1,0.2c8.1,13.9,13.9,30.3,16.6,48.6l1.301,8.6 l8.699-0.7c1.301-0.1,2.601-0.1,3.5,0.2C385.713,161.226,390.413,176.025,386.812,190.625z"></path> </g> </g></svg>