<?xml version="1.0" encoding="UTF-8"?>
<svg fill="#000000" version="1.1" viewBox="0 0 32 32" xmlns="http://www.w3.org/2000/svg">
<g transform="translate(36,-244)" fill="#000" fill-rule="evenodd" stroke-linecap="round" stroke-linejoin="round" stroke-miterlimit="4.1">
<path d="m-31.371 255.01c-1.6256 0-2.8648 1.5162-2.5898 3.1035l2.2754 13.135c0.27851 1.6078 1.7015 2.7617 3.3145 2.7617h16.768c1.6146 0 3.013-1.1611 3.3105-2.748a1.0001 1.0001 0 0 0 0.00195-0.0137l2.2734-13.121v-2e-3c0.29844-1.5986-0.95942-3.1152-2.5859-3.1152zm0 2h22.768c0.4158 0 0.69772 0.33936 0.62109 0.74805a1.0001 1.0001 0 0 0-0.00195 0.0137l-2.2754 13.127c-0.12429 0.65116-0.68034 1.1113-1.3438 1.1113h-16.768c-0.66661 0-1.2332-0.46316-1.3438-1.1016l-2.2754-13.137c-0.07374-0.42569 0.20171-0.76172 0.61914-0.76172z" color="#000000" style="-inkscape-stroke:none"/>
<path d="m-24.695 246.07a1 1 0 0 0-0.55664 0.52734l-4 9a1 1 0 0 0 0.50781 1.3203 1 1 0 0 0 1.3203-0.50781l4-9a1 1 0 0 0-0.50781-1.3203 1 1 0 0 0-0.76367-0.0195z" color="#000000" style="-inkscape-stroke:none"/>
<path d="m-15.279 246.07a1 1 0 0 0-0.76367 0.0195 1 1 0 0 0-0.50781 1.3203l4 9a1 1 0 0 0 1.3184 0.50781 1 1 0 0 0 0.50781-1.3203l-4-9a1 1 0 0 0-0.55469-0.52734z" color="#000000" style="-inkscape-stroke:none"/>
<path d="m-20 259.01a1 1 0 0 0-1 1v8a1 1 0 0 0 1 1 1 1 0 0 0 1-1v-8a1 1 0 0 0-1-1z" color="#000000" style="-inkscape-stroke:none"/>
<path d="m-24 259.01a1 1 0 0 0-1 1v8a1 1 0 0 0 1 1 1 1 0 0 0 1-1v-8a1 1 0 0 0-1-1z" color="#000000" style="-inkscape-stroke:none"/>
<path d="m-16 259.01a1 1 0 0 0-1 1v8a1 1 0 0 0 1 1 1 1 0 0 0 1-1v-8a1 1 0 0 0-1-1z" color="#000000" style="-inkscape-stroke:none"/>
</g>
</svg>
