<svg width="20" height="20" viewBox="0 0 20 20" fill="none" xmlns="http://www.w3.org/2000/svg">
                                                    <path d="M18.1713 8.36775H17.5V8.33317H10V11.6665H14.7096C14.0225 13.6069 12.1763 14.9998 10 14.9998C7.23877 14.9998 5.00002 12.7611 5.00002 9.99984C5.00002 7.23859 7.23877 4.99984 10 4.99984C11.2746 4.99984 12.4342 5.48067 13.3171 6.26609L15.6742 3.909C14.1859 2.52192 12.195 1.6665 10 1.6665C5.39794 1.6665 1.66669 5.39775 1.66669 9.99984C1.66669 14.6019 5.39794 18.3332 10 18.3332C14.6021 18.3332 18.3334 14.6019 18.3334 9.99984C18.3334 9.44109 18.2759 8.89567 18.1713 8.36775Z" fill="#FFC107"></path>
                                                    <path d="M2.6275 6.12109L5.36542 8.129C6.10625 6.29484 7.90042 4.99984 10 4.99984C11.2746 4.99984 12.4342 5.48067 13.3171 6.26609L15.6742 3.909C14.1858 2.52192 12.195 1.6665 10 1.6665C6.79917 1.6665 4.02334 3.47359 2.6275 6.12109Z" fill="#FF3D00"></path>
                                                    <path d="M9.99999 18.3331C12.1525 18.3331 14.1083 17.5094 15.5871 16.1698L13.0079 13.9873C12.1431 14.645 11.0864 15.0007 9.99999 14.9998C7.83249 14.9998 5.99207 13.6177 5.29874 11.689L2.58124 13.7827C3.9604 16.4815 6.76124 18.3331 9.99999 18.3331Z" fill="#4CAF50"></path>
                                                    <path d="M18.1713 8.36808H17.5V8.3335H10V11.6668H14.7096C14.3809 12.5903 13.7889 13.3973 13.0067 13.9881L13.0079 13.9872L15.5871 16.1697C15.4046 16.3356 18.3333 14.1668 18.3333 10.0002C18.3333 9.44141 18.2758 8.896 18.1713 8.36808Z" fill="#1976D2"></path>
                                                </svg>