<svg fill="#000000" height="200px" width="200px" version="1.1" id="Layer_1" xmlns="http://www.w3.org/2000/svg" xmlns:xlink="http://www.w3.org/1999/xlink" viewBox="0 0 512 512" xml:space="preserve" transform="rotate(180)"><g id="SVGRepo_bgCarrier" stroke-width="0"></g><g id="SVGRepo_tracerCarrier" stroke-linecap="round" stroke-linejoin="round"></g><g id="SVGRepo_iconCarrier"> <g> <g> <path d="M505.572,42.986c-4.115-4.115-9.697-6.428-15.517-6.428L386.03,36.564H109.714c-0.101,0-0.2,0.013-0.301,0.016 l-87.472,0.004C9.823,36.585,0,46.409,0,58.527v263.314c0,12.118,9.825,21.943,21.943,21.943h468.114 c12.118,0,21.943-9.825,21.943-21.943V58.501C512,52.682,509.687,47.1,505.572,42.986z M131.657,80.463l248.686-0.012v43.905 H131.657V80.463z M468.114,299.899H43.886V80.469l43.886-0.003v65.833c0,12.118,9.825,21.943,21.943,21.943h292.571 c12.118,0,21.943-9.825,21.943-21.943V80.448l43.886-0.003V299.899z"></path> </g> </g> <g> <g> <path d="M402.286,212.107H109.714c-12.118,0-21.943,9.825-21.943,21.943c0,12.118,9.825,21.943,21.943,21.943h292.571 c12.118,0,21.943-9.825,21.943-21.943C424.229,221.932,414.404,212.107,402.286,212.107z"></path> </g> </g> <g> <g> <path d="M36.571,387.67c-12.118,0-21.943,9.825-21.943,21.943v43.886c0,12.118,9.825,21.943,21.943,21.943 c12.118,0,21.943-9.825,21.943-21.943v-43.886C58.514,397.495,48.69,387.67,36.571,387.67z"></path> </g> </g> <g> <g> <path d="M124.343,387.67c-12.118,0-21.943,9.825-21.943,21.943v43.886c0,12.118,9.825,21.943,21.943,21.943 c12.118,0,21.943-9.825,21.943-21.943v-43.886C146.286,397.495,136.461,387.67,124.343,387.67z"></path> </g> </g> <g> <g> <path d="M212.114,387.67c-12.118,0-21.943,9.825-21.943,21.943v43.886c0,12.118,9.825,21.943,21.943,21.943 c12.118,0,21.943-9.825,21.943-21.943v-43.886C234.057,397.495,224.233,387.67,212.114,387.67z"></path> </g> </g> <g> <g> <path d="M299.886,387.67c-12.118,0-21.943,9.825-21.943,21.943v43.886c0,12.118,9.825,21.943,21.943,21.943 c12.118,0,21.943-9.825,21.943-21.943v-43.886C321.829,397.495,312.004,387.67,299.886,387.67z"></path> </g> </g> <g> <g> <path d="M387.657,387.67c-12.118,0-21.943,9.825-21.943,21.943v43.886c0,12.118,9.825,21.943,21.943,21.943 c12.118,0,21.943-9.825,21.943-21.943v-43.886C409.6,397.495,399.775,387.67,387.657,387.67z"></path> </g> </g> <g> <g> <path d="M475.429,387.67c-12.118,0-21.943,9.825-21.943,21.943v43.886c0,12.118,9.825,21.943,21.943,21.943 c12.118,0,21.943-9.825,21.943-21.943v-43.886C497.371,397.495,487.547,387.67,475.429,387.67z"></path> </g> </g> </g></svg>