<svg height="200px" width="200px" version="1.1" id="Capa_1" xmlns="http://www.w3.org/2000/svg" xmlns:xlink="http://www.w3.org/1999/xlink" viewBox="0 0 343.912 343.912" xml:space="preserve" fill="#000000"><g id="SVGRepo_bgCarrier" stroke-width="0"></g><g id="SVGRepo_tracerCarrier" stroke-linecap="round" stroke-linejoin="round"></g><g id="SVGRepo_iconCarrier"> <g> <g> <g> <circle style="fill:#010002;" cx="171.961" cy="171.951" r="22.703"></circle> </g> <g> <path style="fill:#010002;" d="M284.659,297.223c-3.22,0-6.44-1.235-8.893-3.688c-4.906-4.911-4.906-12.869,0-17.78 c27.728-27.712,42.996-64.578,42.996-103.799S303.5,95.864,275.766,68.146c-4.906-4.911-4.906-12.874,0-17.786 c4.911-4.895,12.88-4.895,17.791-0.005c32.466,32.482,50.366,75.663,50.355,121.601c-0.005,45.949-17.889,89.125-50.355,121.585 C291.104,295.989,287.879,297.223,284.659,297.223z"></path> </g> <g> <path style="fill:#010002;" d="M59.259,297.223c-3.22,0-6.44-1.235-8.893-3.677C17.884,261.075,0,217.889,0,171.951 c0-45.933,17.895-89.114,50.366-121.596c4.911-4.884,12.863-4.884,17.78,0c4.911,4.911,4.911,12.885,0,17.791 C40.418,95.864,25.161,132.73,25.161,171.945s15.262,76.092,42.985,103.81c4.911,4.911,4.911,12.874,0,17.78 C65.688,295.989,62.473,297.223,59.259,297.223z"></path> </g> <g> <path style="fill:#010002;" d="M247.102,259.661c-3.22,0-6.44-1.224-8.893-3.671c-4.911-4.911-4.911-12.88,0-17.786 c36.523-36.529,36.523-95.972,0-132.506c-4.911-4.901-4.911-12.863,0-17.775c4.917-4.895,12.874-4.895,17.78,0.005 c46.335,46.33,46.335,121.721,0,168.056C253.526,258.437,250.322,259.661,247.102,259.661z"></path> </g> <g> <path style="fill:#010002;" d="M96.821,259.65c-3.22,0-6.44-1.224-8.893-3.671c-22.442-22.447-34.799-52.291-34.799-84.028 s12.358-61.581,34.799-84.012c4.917-4.895,12.874-4.895,17.791,0.005c4.906,4.911,4.906,12.874,0,17.786 c-17.704,17.677-27.451,41.206-27.451,66.221c0,25.036,9.747,48.549,27.451,66.237c4.906,4.911,4.906,12.885,0,17.78 C103.255,258.427,100.041,259.65,96.821,259.65z"></path> </g> <g> <path style="fill:#010002;" d="M209.535,222.105c-3.22,0-6.44-1.224-8.893-3.677c-4.906-4.911-4.906-12.869,0-17.78 c15.806-15.822,15.806-41.56,0-57.377c-4.906-4.911-4.906-12.874,0-17.786c4.911-4.911,12.88-4.884,17.791,0.016 c25.591,25.607,25.591,67.298,0,92.916C215.98,220.87,212.754,222.105,209.535,222.105z"></path> </g> <g> <path style="fill:#010002;" d="M134.399,222.105c-3.225,0-6.445-1.235-8.898-3.688c-25.607-25.629-25.607-67.308,0-92.932 c4.911-4.884,12.869-4.884,17.786,0c4.906,4.911,4.906,12.885,0,17.791c-15.817,15.806-15.817,41.544,0.005,57.366 c4.901,4.911,4.895,12.869-0.016,17.78C140.828,220.875,137.608,222.105,134.399,222.105z"></path> </g> </g> </g> </g></svg>