<svg viewBox="0 0 64 64" id="filled" xmlns="http://www.w3.org/2000/svg" fill="#000000"><g id="SVGRepo_bgCarrier" stroke-width="0"></g><g id="SVGRepo_tracerCarrier" stroke-linecap="round" stroke-linejoin="round"></g><g id="SVGRepo_iconCarrier"><defs><style>.cls-1{fill:#ffffff;}.cls-1,.cls-2,.cls-3,.cls-4{stroke:#000000;stroke-linecap:round;stroke-linejoin:round;stroke-width:2px;}.cls-2{fill:#ffffff;}.cls-3{fill:none;}.cls-4{fill:#ffffff;}</style></defs><title></title><polygon class="cls-1" points="53.857 15 10.143 15 5 3 59 3 53.857 15"></polygon><path class="cls-2" d="M24,9H40a6,6,0,0,1,6,6v0a0,0,0,0,1,0,0H18a0,0,0,0,1,0,0v0A6,6,0,0,1,24,9Z"></path><path class="cls-3" d="M31.9718,21c1.0386,1.3933,1.1238,2.3541.9669,3-.3306,1.3609-1.8357,1.7365-1.9338,3a2.7146,2.7146,0,0,0,.9669,2"></path><path class="cls-3" d="M25.9718,19c1.0386,1.3933,1.1238,2.3541.9669,3-.3306,1.3609-1.8357,1.7365-1.9338,3a2.7149,2.7149,0,0,0,.9669,2"></path><path class="cls-3" d="M37.9718,19c1.0386,1.3933,1.1238,2.3541.9669,3-.3306,1.3609-1.8357,1.7365-1.9338,3a2.7146,2.7146,0,0,0,.9669,2"></path><path class="cls-4" d="M27,41v7.4861a5,5,0,0,1-.84,2.7735L23.84,54.74A5,5,0,0,0,23,57.5139V61H11V57.5139a5,5,0,0,0-.84-2.7735L7.84,51.26A5,5,0,0,1,7,48.4861V37a4,4,0,0,1,4,4h0"></path><path class="cls-4" d="M27,42V37a2,2,0,0,0-2-2h0a2,2,0,0,0-2,2v5"></path><path class="cls-4" d="M23,42V31a2,2,0,0,0-2-2h0a2,2,0,0,0-2,2V42"></path><path class="cls-4" d="M19,42V28.2A2.1072,2.1072,0,0,0,17,26h0a2.1072,2.1072,0,0,0-2,2.2V42"></path><path class="cls-4" d="M15,42V31a2,2,0,0,0-2-2h0a2,2,0,0,0-2,2V42"></path><path class="cls-3" d="M15,49a3.9977,3.9977,0,0,0-4-4V42"></path><path class="cls-4" d="M37,41v7.4861a5,5,0,0,0,.84,2.7735L40.16,54.74A5,5,0,0,1,41,57.5139V61H53V57.5139a5,5,0,0,1,.84-2.7735L56.16,51.26A5,5,0,0,0,57,48.4861V38a4,4,0,0,0-4,4V41"></path><path class="cls-4" d="M37,42V37a2,2,0,0,1,2-2h0a2,2,0,0,1,2,2v5"></path><path class="cls-4" d="M41,42V31a2,2,0,0,1,2-2h0a2,2,0,0,1,2,2V42"></path><path class="cls-4" d="M45,42V28.2A2.1072,2.1072,0,0,1,47,26h0a2.1072,2.1072,0,0,1,2,2.2V42"></path><path class="cls-4" d="M49,42V31a2,2,0,0,1,2-2h0a2,2,0,0,1,2,2V42"></path><path class="cls-3" d="M49,49a3.9977,3.9977,0,0,1,4-4V42"></path></g></svg>